# xmcd
#
# Track frame offsets: 
#        150
#        12919
#        34209
#        66251
#        94505
#        109269
#        126819
#        140037
#        152670
#        169092
#        187556
#        208798
#        229307
#
# Disc length: 3401 seconds
#
# Revision: 0
# Processed by: cddbd v1.5.2PL0 Copyright (c) Steve Scherf et al.
# Submitted via: ExactAudioCopy v1.1
#
DISCID=ae0d470d
DTITLE=Henhouse Prowlers - Live from Kyrgyzstan
DYEAR=2016
DGENRE=Bluegrass USA
TTITLE0=Lonesome Road
TTITLE1=Sitya Loss
TTITLE2=Foggy Mountain Special > Mr.Charlie
TTITLE3=Uncle Bubba
TTITLE4=Born and raised in Covington
TTITLE5=Fire
TTITLE6=Leather Britches
TTITLE7=Carolina Moon
TTITLE8=Shadow of a Man
TTITLE9=Drunk again
TTITLE10=Kara Jorgo
TTITLE11=Henhouse Prowlers and Ethnographic Folk Theater Ordo Sakhna - U
TTITLE11=p and down the Mountain
TTITLE12=Henhouse Prowlers and Ethnographic Folk Theater Ordo Sakhna - S
TTITLE12=tand by me
EXTD=
EXTT0=
EXTT1=
EXTT2=
EXTT3=
EXTT4=
EXTT5=
EXTT6=
EXTT7=
EXTT8=
EXTT9=
EXTT10=
EXTT11=
EXTT12=
PLAYORDER=
